<?xml version="1.0" encoding="UTF-8" standalone="no"?>
<!DOCTYPE svg PUBLIC "-//W3C//DTD SVG 1.1//EN" "http://www.w3.org/Graphics/SVG/1.1/DTD/svg11.dtd">
<svg width="100%" height="100%" viewBox="0 0 2084 2084" version="1.1" xmlns="http://www.w3.org/2000/svg" xmlns:xlink="http://www.w3.org/1999/xlink" xml:space="preserve" xmlns:serif="http://www.serif.com/" style="fill-rule:evenodd;clip-rule:evenodd;stroke-linejoin:round;stroke-miterlimit:2;">
    <g transform="matrix(4.16667,0,0,4.16667,0,0)">
        <path d="M179.521,62.818C179.807,61.875 180.24,61.281 180.802,61.016L188.37,57.719C195.474,55.151 205.047,51.969 212.323,49.922L215.896,49.099C215.297,49.333 214.839,49.932 214.542,50.911C209.089,52.807 201.833,55.396 196.516,57.646C191.38,59.068 184.536,61.021 179.521,62.818" style="fill:rgb(212,189,172);fill-rule:nonzero;"/>
        <path d="M144.073,84.896C144.286,84.198 144.583,83.693 144.964,83.385L145.089,83.281C159.396,72.604 159.672,72.401 167.714,67.786L175.651,63.51C175.109,63.786 174.698,64.375 174.422,65.281C169.5,68.422 162.958,72.661 158.255,76.109C153.927,78.635 148.188,82.052 144.073,84.896" style="fill:rgb(212,189,172);fill-rule:nonzero;"/>
        <path d="M407.771,143.969L407.917,144.068L411.229,152.057L407.771,143.969" style="fill:rgb(212,189,172);fill-rule:nonzero;"/>
        <path d="M396.995,125.193C397.052,125.016 397.135,124.906 397.24,124.865C400.057,129.625 403.771,136.005 406.302,140.922L411.229,152.057L406.109,141.182C403.453,136.339 399.875,129.906 396.995,125.193" style="fill:rgb(212,189,172);fill-rule:nonzero;"/>
        <path d="M370.563,93.63C370.688,93.229 370.875,92.979 371.125,92.88C374.953,96.693 380.021,101.807 383.625,105.833C386.865,110.094 391.161,115.797 394.193,120.208C394.063,120.26 393.964,120.385 393.901,120.594C390.651,116.438 386.276,110.922 382.771,106.979C379.172,102.917 374.339,97.526 370.563,93.63" style="fill:rgb(212,189,172);fill-rule:nonzero;"/>
        <path d="M337.979,69.625C338.167,69.021 338.448,68.646 338.823,68.5C343.438,71.276 349.573,75.016 354.021,78.052C358.021,81.323 363.328,85.719 367.151,89.193C366.885,89.297 366.688,89.563 366.552,89.995C362.432,86.901 356.896,82.813 352.578,80C348.25,76.813 342.453,72.599 337.979,69.625" style="fill:rgb(212,189,172);fill-rule:nonzero;"/>
        <path d="M300.917,53.859C301.156,53.089 301.51,52.609 301.99,52.427C307.172,54.073 314.073,56.323 319.146,58.276C323.693,60.464 329.745,63.432 334.156,65.875C333.771,66.026 333.479,66.411 333.281,67.042C328.5,65.089 322.094,62.531 317.193,60.901C312.349,58.703 305.87,55.802 300.917,53.859" style="fill:rgb(212,189,172);fill-rule:nonzero;"/>
        <path d="M261.031,47.016C261.307,46.12 261.724,45.568 262.281,45.354C267.651,45.781 274.818,46.375 280.151,47.125L280.885,47.245C285.698,48.255 292.115,49.646 296.849,50.958C296.365,51.146 295.995,51.63 295.75,52.422C290.526,51.677 283.542,50.745 278.276,50.359C273.125,49.255 266.24,47.818 261.031,47.016" style="fill:rgb(212,189,172);fill-rule:nonzero;"/>
        <g>
            <clipPath id="_clip1">
                <rect x="218.667" y="45.078" width="38.667" height="5.589"/>
            </clipPath>
            <g clip-path="url(#_clip1)">
                <path d="M219.984,49.786C220.286,48.813 220.74,48.214 221.339,47.984L228.411,46.766C232.531,46.328 238.005,45.589 242.135,45.318L247.193,45.073L256.88,45.13C256.318,45.349 255.896,45.906 255.615,46.818C250.167,47.359 242.901,48.141 237.5,49.052C232.24,49.146 225.224,49.333 219.984,49.786" style="fill:rgb(212,189,172);fill-rule:nonzero;"/>
            </g>
        </g>
        <path d="M115.932,113.979C116.063,113.557 116.229,113.208 116.422,112.943C119.161,109.604 122.703,105.063 125.578,101.844C130.021,97.266 136.021,91.224 140.74,86.932C140.385,87.24 140.109,87.724 139.901,88.391C135.906,92.458 130.625,97.927 126.885,102.229C123.505,105.667 119.042,110.302 115.932,113.979" style="fill:rgb(212,189,172);fill-rule:nonzero;"/>
        <path d="M407.609,144.51C407.599,144.385 407.594,144.286 407.594,144.208L411.229,152.057L407.609,144.51" style="fill:rgb(212,189,172);fill-rule:nonzero;"/>
        <path d="M384.938,111.458C384.859,110.771 384.828,110.198 384.849,109.74C388.198,113.781 392.625,119.208 395.708,123.453C398.583,128.146 402.385,134.427 405.042,139.245C405.036,139.38 405.042,139.547 405.063,139.745C402.391,135.464 398.786,129.781 395.823,125.698C392.62,121.38 387.01,116.422 384.938,111.458" style="fill:rgb(212,189,172);fill-rule:nonzero;"/>
        <path d="M355.271,85.406C355.135,84.203 355.083,83.208 355.115,82.411C359.307,85.333 364.865,89.281 368.854,92.474C372.635,96.38 377.656,101.62 381.266,105.688C381.245,106.193 381.276,106.823 381.365,107.583C377.766,104.438 372.932,100.271 369.109,97.406C365.005,93.75 357.891,90.234 355.271,85.406" style="fill:rgb(212,189,172);fill-rule:nonzero;"/>
        <path d="M320.271,66.969C320.083,65.333 320.016,63.969 320.063,62.875C324.87,64.615 331.266,66.995 335.948,69.063C340.432,72.078 346.391,76.135 350.734,79.349C350.698,80.193 350.75,81.245 350.896,82.505C346.573,80.542 340.781,77.974 336.323,76.359C331.547,73.474 325.156,69.656 320.271,66.969" style="fill:rgb(212,189,172);fill-rule:nonzero;"/>
        <path d="M281.604,56.771C281.38,54.781 281.302,53.13 281.354,51.802C286.557,52.307 293.495,53.036 298.651,53.901C303.625,55.911 310.24,58.646 315.099,60.901C315.052,62.031 315.125,63.438 315.313,65.125C310.479,64.401 304.01,63.49 299.13,63.141C293.906,61.151 286.917,58.526 281.604,56.771" style="fill:rgb(212,189,172);fill-rule:nonzero;"/>
        <path d="M240.938,55.427C240.682,53.203 240.589,51.344 240.651,49.859C246.031,49.073 253.219,48.078 258.641,47.661C263.875,48.563 270.854,49.807 276.031,51.005C275.979,52.359 276.057,54.042 276.292,56.068C271.146,56.62 264.281,57.422 259.188,58.354C253.729,57.375 246.438,56.115 240.938,55.427" style="fill:rgb(212,189,172);fill-rule:nonzero;"/>
        <path d="M199.917,63.563C199.651,61.219 199.557,59.271 199.62,57.708C204.953,55.583 212.094,52.797 217.563,51.031C222.844,50.698 229.896,50.307 235.188,50.323C235.125,51.823 235.219,53.698 235.474,55.948C230.234,57.813 223.26,60.37 218.156,62.583C212.682,62.755 205.37,63.036 199.917,63.563" style="fill:rgb(212,189,172);fill-rule:nonzero;"/>
        <path d="M161.24,81.245C160.974,78.927 160.875,77 160.943,75.453C165.75,72.099 172.203,67.667 177.219,64.625C182.286,62.964 189.068,60.807 194.24,59.521C194.172,61.089 194.271,63.042 194.536,65.385C189.453,68.568 182.698,72.865 177.828,76.359C172.813,77.703 166.141,79.547 161.24,81.245" style="fill:rgb(212,189,172);fill-rule:nonzero;"/>
        <path d="M129.276,106.344C129.031,104.193 128.943,102.401 129.005,100.964C132.865,96.719 138.052,91.094 142.156,87.094C146.328,84.385 151.927,80.818 156.286,78.432C156.224,79.969 156.318,81.885 156.578,84.188C152.344,88.344 146.729,93.922 142.734,98.302C138.63,100.604 133.182,103.724 129.276,106.344" style="fill:rgb(212,189,172);fill-rule:nonzero;"/>
        <path d="M104.964,137.208C104.75,135.333 104.672,133.771 104.724,132.521C107.547,127.635 111.359,121.146 114.458,116.432C117.625,112.87 121.896,108.151 125.323,104.839C125.266,106.255 125.354,108.026 125.594,110.146C122.323,114.99 117.995,121.479 114.974,126.484C111.875,129.609 107.781,133.828 104.964,137.208" style="fill:rgb(212,189,172);fill-rule:nonzero;"/>
        <path d="M88.979,172.245C88.813,170.75 88.75,169.51 88.792,168.516C90.49,163.224 92.807,156.188 94.792,150.995C96.885,146.771 99.724,141.146 102.12,137.078C102.068,138.297 102.141,139.823 102.349,141.646C100.12,146.922 97.193,153.974 95.219,159.349C93.24,163.161 90.646,168.276 88.979,172.245" style="fill:rgb(212,189,172);fill-rule:nonzero;"/>
        <g>
            <path d="M82.005,209.88C81.891,208.859 81.844,208.005 81.875,207.323L81.979,205.531L82.703,197.391L84.188,187.094C85.078,183.01 86.224,177.557 87.339,173.536C87.297,174.495 87.359,175.688 87.521,177.12C86.422,182.573 84.995,189.854 84.156,195.354C83.401,199.698 82.443,205.5 82.005,209.88" style="fill:rgb(212,189,172);fill-rule:nonzero;"/>
        </g>
        <path d="M397.49,129.526C397.469,129.432 397.448,129.344 397.427,129.255C397.302,128.703 397.203,128.203 397.12,127.755C399.927,131.901 403.62,137.464 406.141,141.792L411.229,152.057L406.427,143.198C403.818,139.052 399.484,134.005 397.49,129.526" style="fill:rgb(212,189,172);fill-rule:nonzero;"/>
        <path d="M371.698,103.583C371.646,103.37 371.599,103.161 371.552,102.958C371.266,101.688 371.036,100.542 370.854,99.521C374.552,102.458 379.443,106.438 382.901,109.651C386.307,113.792 390.823,119.339 394.052,123.62C394.146,124.146 394.26,124.734 394.411,125.385C394.432,125.49 394.458,125.599 394.484,125.703C391.484,122.641 387.438,118.589 384.177,115.807C380.474,112.094 374.313,108.12 371.698,103.583" style="fill:rgb(212,189,172);fill-rule:nonzero;"/>
        <path d="M339.682,84.521C339.604,84.208 339.531,83.896 339.469,83.589C339.036,81.693 338.688,79.974 338.417,78.443C342.781,80.141 348.589,82.474 352.797,84.521C357.068,87.995 362.734,92.661 366.865,96.297C367.057,97.396 367.307,98.62 367.615,99.974C367.667,100.193 367.714,100.422 367.766,100.646C363.984,98.807 358.901,96.411 354.958,94.943C350.406,91.771 342.859,89.068 339.682,84.521" style="fill:rgb(212,189,172);fill-rule:nonzero;"/>
        <path d="M303.083,72.849C302.99,72.448 302.896,72.052 302.807,71.661C302.26,69.24 301.818,67.057 301.474,65.099C306.292,65.536 312.719,66.182 317.49,67C322.401,69.698 328.932,73.328 333.74,76.214C334.021,77.807 334.38,79.589 334.828,81.563C334.901,81.885 334.974,82.208 335.047,82.536C330.672,81.958 324.823,81.255 320.406,81.068C315.234,78.547 308.328,75.214 303.083,72.849" style="fill:rgb(212,189,172);fill-rule:nonzero;"/>
        <path d="M263.547,69.073C263.438,68.609 263.333,68.151 263.229,67.693C262.594,64.885 262.078,62.344 261.682,60.073C266.75,59.229 273.521,58.167 278.635,57.703C283.969,59.495 291.073,61.922 296.323,63.943C296.677,65.948 297.13,68.188 297.693,70.667C297.781,71.068 297.875,71.474 297.969,71.885C293.203,72.583 286.849,73.578 282.146,74.641C276.589,72.901 269.167,70.615 263.547,69.073" style="fill:rgb(212,189,172);fill-rule:nonzero;"/>
        <path d="M222.714,73.698C222.594,73.193 222.484,72.693 222.37,72.198C221.682,69.156 221.125,66.401 220.688,63.938C225.802,61.813 232.651,59.021 237.896,57.245C243.427,57.99 250.792,59.031 256.276,60.063C256.677,62.365 257.203,64.943 257.849,67.792C257.953,68.255 258.063,68.724 258.167,69.193C253.214,71.161 246.63,73.844 241.813,76.125C236.099,75.307 228.464,74.255 222.714,73.698" style="fill:rgb(212,189,172);fill-rule:nonzero;"/>
        <path d="M182.297,87.188C182.177,86.672 182.063,86.161 181.948,85.661C181.245,82.557 180.677,79.75 180.234,77.24C185.177,73.828 191.797,69.323 196.932,66.219C202.417,65.776 209.745,65.245 215.245,65.151C215.682,67.63 216.245,70.396 216.938,73.464C217.047,73.958 217.167,74.464 217.281,74.969C212.349,78.182 205.792,82.516 201.036,85.984C195.411,86.24 187.906,86.63 182.297,87.188" style="fill:rgb(212,189,172);fill-rule:nonzero;"/>
        <path d="M146.734,108.26C146.62,107.766 146.505,107.281 146.401,106.797C145.729,103.823 145.182,101.13 144.755,98.724C148.844,94.391 154.339,88.641 158.661,84.547C163.568,82.964 170.13,80.911 175.135,79.677C175.573,82.182 176.146,84.984 176.844,88.083C176.958,88.583 177.073,89.094 177.193,89.604C172.771,93.849 166.906,99.542 162.698,104C157.88,105.172 151.464,106.776 146.734,108.26" style="fill:rgb(212,189,172);fill-rule:nonzero;"/>
        <path d="M118.328,135.01C118.229,134.568 118.125,134.125 118.026,133.693C117.422,131.01 116.932,128.594 116.547,126.427C119.677,121.453 123.885,114.849 127.26,110.042C131.188,107.536 136.469,104.25 140.578,102.078C141,104.458 141.542,107.12 142.203,110.068C142.313,110.542 142.422,111.026 142.542,111.516C139.005,116.422 134.323,122.99 131,128.047C127.141,130.026 122.01,132.714 118.328,135.01" style="fill:rgb(212,189,172);fill-rule:nonzero;"/>
        <path d="M97.781,165.974C97.698,165.604 97.609,165.24 97.531,164.875C97.026,162.641 96.615,160.62 96.297,158.813C98.385,153.458 101.214,146.333 103.557,141.083C106.406,137.818 110.26,133.495 113.385,130.49C113.76,132.615 114.245,134.99 114.839,137.615C114.938,138.042 115.031,138.474 115.135,138.911C112.557,144.198 109.156,151.266 106.786,156.656C103.99,159.354 100.297,163.01 97.781,165.974" style="fill:rgb(212,189,172);fill-rule:nonzero;"/>
        <path d="M85.797,199.698C85.734,199.422 85.672,199.146 85.609,198.875C85.234,197.208 84.927,195.698 84.693,194.349C85.661,188.859 86.995,181.547 88.219,176.115C89.917,172.245 92.229,167.094 94.245,163.38C94.552,165.135 94.953,167.089 95.443,169.26C95.521,169.609 95.599,169.964 95.682,170.323C94.135,175.729 92.104,182.943 90.776,188.401C89.161,191.734 87.068,196.219 85.797,199.698" style="fill:rgb(212,189,172);fill-rule:nonzero;"/>
        <g>
            <path d="M83.078,234.714C83.042,234.547 83.005,234.385 82.964,234.224C82.74,233.219 82.552,232.307 82.411,231.495C82.172,226.125 81.906,218.953 81.943,213.578C82.401,209.255 83.052,203.49 83.839,199.219C84.063,200.5 84.349,201.932 84.714,203.521C84.771,203.776 84.828,204.036 84.891,204.297C84.438,209.568 83.88,216.599 83.667,221.885C83.37,225.724 83.042,230.859 83.078,234.714" style="fill:rgb(212,189,172);fill-rule:nonzero;"/>
        </g>
        <path d="M408.063,146.443C407.995,146.208 407.927,145.984 407.875,145.771L411.229,152.057L408.063,146.443" style="fill:rgb(212,189,172);fill-rule:nonzero;"/>
        <path d="M387.505,122.474C387.104,121.12 386.745,119.833 386.427,118.625C389.516,121.49 393.589,125.365 396.406,128.495C399.198,132.448 402.896,137.734 405.495,141.813C405.589,142.161 405.693,142.531 405.807,142.927C403.505,140.016 400.396,136.151 397.807,133.495C394.76,130.146 389.797,126.375 387.505,122.474" style="fill:rgb(212,189,172);fill-rule:nonzero;"/>
        <path d="M359.75,104.609C359.057,102.245 358.427,100.005 357.875,97.896C361.682,99.469 366.745,101.635 370.391,103.563C374.219,107.099 379.307,111.828 383.01,115.495C383.365,116.828 383.76,118.245 384.198,119.74C381.042,118.063 376.792,115.875 373.464,114.573C369.38,111.547 362.714,108.74 359.75,104.609" style="fill:rgb(212,189,172);fill-rule:nonzero;"/>
        <path d="M326.391,93.193C325.443,89.964 324.583,86.901 323.828,84.026C328.156,84.323 333.932,84.781 338.219,85.464C342.875,88.474 349.068,92.51 353.635,95.651C354.219,97.865 354.88,100.229 355.609,102.714C351.771,102.286 346.63,101.786 342.771,101.745C337.875,99.146 331.339,95.688 326.391,93.193" style="fill:rgb(212,189,172);fill-rule:nonzero;"/>
        <path d="M289.026,88.568C287.875,84.656 286.839,80.938 285.917,77.453C290.578,76.5 296.813,75.276 301.531,74.682C306.792,77.042 313.797,80.214 318.984,82.729C319.766,85.693 320.651,88.849 321.63,92.182C317.302,93 311.542,94.151 307.302,95.313C301.833,93.245 294.536,90.505 289.026,88.568" style="fill:rgb(212,189,172);fill-rule:nonzero;"/>
        <path d="M208.667,101.057C207.307,96.443 206.083,92.063 205,87.953C209.792,84.578 216.203,80.115 221.161,77C226.932,77.625 234.62,78.505 240.359,79.375C241.396,83.323 242.573,87.526 243.88,91.958C239.172,95.125 232.917,99.391 228.37,102.781C222.464,102.182 214.589,101.422 208.667,101.057" style="fill:rgb(212,189,172);fill-rule:nonzero;"/>
        <path d="M169.891,118.328C168.547,113.766 167.333,109.438 166.266,105.37C170.573,100.984 176.354,95.172 180.88,91.005C186.495,90.552 193.995,89.995 199.635,89.833C200.719,93.948 201.943,98.333 203.307,102.958C198.708,107.161 192.609,112.797 188.198,117.198C182.698,117.453 175.37,117.833 169.891,118.328" style="fill:rgb(212,189,172);fill-rule:nonzero;"/>
        <path d="M137.323,140.844C136.078,136.599 134.948,132.568 133.958,128.786C137.391,123.792 142.01,117.146 145.651,112.297C150.401,110.953 156.755,109.214 161.578,108.167C162.641,112.208 163.849,116.51 165.182,121.047C161.359,125.88 156.286,132.349 152.646,137.323C148.031,138.276 141.875,139.599 137.323,140.844" style="fill:rgb(212,189,172);fill-rule:nonzero;"/>
        <path d="M111.964,167.208C110.875,163.516 109.896,160.01 109.031,156.724C111.526,151.38 114.891,144.276 117.589,139.031C121.313,136.896 126.318,134.094 130.203,132.266C131.182,135.99 132.297,139.964 133.526,144.151C130.573,149.313 126.651,156.214 123.859,161.469C120.24,163.083 115.427,165.286 111.964,167.208" style="fill:rgb(212,189,172);fill-rule:nonzero;"/>
        <path d="M94.552,196.125C93.688,193.182 92.906,190.396 92.219,187.776C93.698,182.354 95.708,175.13 97.391,169.771C99.974,166.953 103.474,163.24 106.318,160.693C107.167,163.901 108.12,167.323 109.182,170.927C107.151,176.151 104.464,183.125 102.599,188.411C100.099,190.625 96.786,193.635 94.552,196.125" style="fill:rgb(212,189,172);fill-rule:nonzero;"/>
        <path d="M85.833,226.297C85.24,224.276 84.703,222.365 84.234,220.563C84.609,215.313 85.161,208.307 85.766,203.078C87.104,199.719 88.953,195.255 90.635,192.063C91.297,194.578 92.052,197.255 92.88,200.083C91.844,205.115 90.484,211.828 89.625,216.891C88.365,219.656 86.74,223.391 85.833,226.297" style="fill:rgb(212,189,172);fill-rule:nonzero;"/>
        <path d="M86.557,256.432C86.271,255.464 86.01,254.547 85.786,253.682C84.984,248.844 83.958,242.38 83.422,237.51C83.443,233.745 83.51,228.714 83.87,224.969C84.318,226.651 84.818,228.443 85.375,230.328C85.391,234.932 85.448,241.068 85.703,245.667C85.839,248.906 86.089,253.229 86.557,256.432" style="fill:rgb(212,189,172);fill-rule:nonzero;"/>
        <path d="M87.833,262.182L87.094,259.427L86.745,258.026C86.938,258.76 87.156,259.536 87.401,260.359L88.745,265.354C88.469,264.401 88.099,263.135 87.833,262.182" style="fill:rgb(212,189,172);fill-rule:nonzero;"/>
        <path d="M399.974,138.01C399.661,137.063 399.365,136.146 399.089,135.266C401.51,137.969 404.688,141.635 406.813,144.573L411.229,152.057L407.521,146.766C405.307,144.099 401.734,141 399.974,138.01" style="fill:rgb(212,189,172);fill-rule:nonzero;"/>
        <path d="M377.406,123.063C376.677,120.885 376,118.781 375.37,116.76C378.573,118.141 382.828,120.057 385.849,121.802C389.047,124.964 393.292,129.198 396.37,132.474C396.698,133.51 397.047,134.589 397.417,135.714C394.943,134.292 391.599,132.443 388.943,131.401C385.505,128.87 379.958,126.49 377.406,123.063" style="fill:rgb(212,189,172);fill-rule:nonzero;"/>
        <path d="M348.224,113.693C347.141,110.427 346.12,107.276 345.182,104.25C348.969,104.365 354.036,104.583 357.792,105.099C361.99,107.958 367.578,111.786 371.698,114.75C372.375,116.906 373.104,119.161 373.875,121.495C370.63,121.313 366.281,121.141 363.036,121.349C358.604,119.026 351.495,117.474 348.224,113.693" style="fill:rgb(212,189,172);fill-rule:nonzero;"/>
        <path d="M313.979,110.042C312.594,105.88 311.302,101.859 310.094,98.005C314.307,96.917 319.948,95.51 324.234,94.771C329.208,97.219 335.844,100.5 340.771,103.057C341.75,106.198 342.813,109.479 343.938,112.87C340.115,113.906 335.026,115.344 331.302,116.693C326.115,114.672 319.193,111.99 313.979,110.042" style="fill:rgb(212,189,172);fill-rule:nonzero;"/>
        <path d="M276.203,112.266C274.599,107.438 273.089,102.766 271.693,98.292C276.167,96.047 282.151,93.094 286.755,91.135C292.286,93.052 299.667,95.625 305.156,97.661C306.391,101.615 307.719,105.734 309.141,109.995C304.927,112.167 299.339,115.115 295.266,117.536C289.557,115.922 281.938,113.786 276.203,112.266" style="fill:rgb(212,189,172);fill-rule:nonzero;"/>
        <path d="M236.432,120.521C234.693,115.281 233.057,110.224 231.547,105.365C236.109,102.036 242.224,97.625 246.948,94.521C252.807,95.755 260.615,97.432 266.432,98.833C267.849,103.375 269.375,108.115 271.005,113.01C266.589,116.229 260.719,120.552 256.443,123.958C250.448,122.875 242.448,121.458 236.432,120.521" style="fill:rgb(212,189,172);fill-rule:nonzero;"/>
        <path d="M196.281,134.911C194.51,129.573 192.844,124.417 191.302,119.469C195.776,115.141 201.766,109.391 206.406,105.24C212.344,105.641 220.25,106.208 226.167,106.833C227.688,111.714 229.333,116.807 231.083,122.078C226.615,126.219 220.682,131.771 216.344,136.052C210.328,135.651 202.307,135.141 196.281,134.911" style="fill:rgb(212,189,172);fill-rule:nonzero;"/>
        <path d="M130.391,176.182C128.865,171.578 127.427,167.125 126.099,162.859C128.979,157.646 132.849,150.708 135.896,145.594C140.427,144.458 146.49,143.005 151.078,142.141C152.542,146.839 154.125,151.734 155.807,156.797C152.505,161.828 148.125,168.552 144.953,173.667C140.568,174.339 134.729,175.26 130.391,176.182" style="fill:rgb(212,189,172);fill-rule:nonzero;"/>
        <path d="M107.849,200.339C106.573,196.5 105.375,192.781 104.266,189.219C106.234,183.979 108.891,177 111.021,171.823C114.49,170.036 119.146,167.714 122.755,166.229C124.057,170.417 125.464,174.781 126.969,179.302C124.495,184.323 121.208,191.021 118.849,196.099C115.516,197.271 111.073,198.875 107.849,200.339" style="fill:rgb(212,189,172);fill-rule:nonzero;"/>
        <path d="M93.323,225.365C92.37,222.495 91.469,219.719 90.641,217.063C91.62,212.042 92.958,205.354 94.115,200.375C96.375,198.021 99.448,194.927 101.969,192.854C103.047,196.307 104.203,199.906 105.448,203.635C103.854,208.391 101.755,214.734 100.292,219.531C98.12,221.182 95.24,223.432 93.323,225.365" style="fill:rgb(212,189,172);fill-rule:nonzero;"/>
        <path d="M87.604,250.156C87.031,248.432 86.49,246.76 85.995,245.161C85.891,240.609 85.807,234.526 85.922,229.974C86.87,227.177 88.182,223.448 89.49,220.802C90.281,223.328 91.13,225.969 92.036,228.693C91.406,232.958 90.573,238.641 90.099,242.927C89.219,245.047 88.109,247.917 87.604,250.156" style="fill:rgb(212,189,172);fill-rule:nonzero;"/>
        <path d="M90.505,270.917C90.167,269.875 89.714,268.49 89.38,267.443L89.115,266.568L87.208,259.344C86.76,256.208 86.198,252.016 86.089,248.844C86.542,250.297 87.031,251.807 87.552,253.375C87.938,256.943 88.479,261.698 89.104,265.229C89.516,266.938 89.958,269.245 90.505,270.917" style="fill:rgb(212,189,172);fill-rule:nonzero;"/>
        <path d="M409.01,149.297C408.901,148.995 408.797,148.698 408.698,148.411L411.229,152.057L409.01,149.297" style="fill:rgb(212,189,172);fill-rule:nonzero;"/>
        <path d="M392.896,138.682C392.271,136.964 391.682,135.281 391.115,133.646C393.604,134.771 396.917,136.344 399.208,137.833C401.542,140.292 404.641,143.583 406.849,146.156C407.016,146.625 407.182,147.115 407.365,147.609C405.688,146.516 403.396,145.089 401.526,144.38C398.948,142.651 394.828,141.109 392.896,138.682" style="fill:rgb(212,189,172);fill-rule:nonzero;"/>
        <path d="M369.146,132.865C368.063,129.875 367.021,126.938 366.036,124.083C369.188,123.958 373.406,123.849 376.547,124.12C380.057,126.479 384.724,129.641 388.182,132.073C388.807,133.88 389.464,135.74 390.151,137.635C387.589,137.766 384.161,138.026 381.651,138.526C377.901,136.823 372.901,134.557 369.146,132.865" style="fill:rgb(212,189,172);fill-rule:nonzero;"/>
        <path d="M339.219,131.781C337.745,127.693 336.323,123.688 334.974,119.792C338.646,118.505 343.563,116.828 347.333,115.87C351.807,118.052 357.776,120.969 362.224,123.208C363.266,126.214 364.359,129.302 365.495,132.453C362.271,133.771 357.979,135.594 354.88,137.188C350.182,135.563 343.922,133.396 339.219,131.781" style="fill:rgb(212,189,172);fill-rule:nonzero;"/>
        <path d="M266.693,143.531C264.688,137.969 262.76,132.531 260.927,127.229C265.193,123.875 270.911,119.427 275.323,116.26C281.073,117.76 288.74,119.771 294.469,121.354C296.13,126.177 297.885,131.13 299.714,136.182C295.672,139.526 290.302,144.01 286.38,147.5C280.479,146.292 272.609,144.682 266.693,143.531" style="fill:rgb(212,189,172);fill-rule:nonzero;"/>
        <path d="M188.036,172.901C185.943,167.12 183.938,161.453 182.031,155.943C186.026,151.089 191.385,144.641 195.531,139.917C201.557,140.203 209.589,140.615 215.604,141.068C217.536,146.651 219.573,152.391 221.688,158.245C217.443,163 211.802,169.354 207.672,174.203C201.786,173.781 193.932,173.224 188.036,172.901" style="fill:rgb(212,189,172);fill-rule:nonzero;"/>
        <path d="M154.208,191.604C152.26,186.224 150.396,180.958 148.62,175.828C151.885,170.76 156.26,164.01 159.656,159.026C164.932,158.781 171.969,158.495 177.25,158.432C179.146,163.911 181.141,169.542 183.219,175.292C179.594,180.214 174.776,186.792 171.25,191.781C166.135,191.677 159.318,191.557 154.208,191.604" style="fill:rgb(212,189,172);fill-rule:nonzero;"/>
        <path d="M126.641,211.354C124.953,206.677 123.328,202.094 121.786,197.635C124.255,192.604 127.568,185.911 130.146,180.932C134.49,180.161 140.286,179.177 144.661,178.635C146.411,183.688 148.25,188.88 150.167,194.182C147.255,199.01 143.385,205.443 140.547,210.313C136.37,210.557 130.802,210.906 126.641,211.354" style="fill:rgb(212,189,172);fill-rule:nonzero;"/>
        <path d="M93.865,250.453C92.943,247.896 92.052,245.385 91.208,242.948C91.844,238.714 92.719,233.078 93.495,228.87C95.484,227.12 98.188,224.833 100.396,223.375C101.578,226.786 102.823,230.292 104.115,233.875C102.823,237.792 101.109,243.016 99.896,246.953C98.031,247.901 95.542,249.198 93.865,250.453" style="fill:rgb(212,189,172);fill-rule:nonzero;"/>
        <path d="M90.406,268.026C89.964,266.797 89.536,265.594 89.135,264.422C88.714,260.927 88.193,256.255 87.984,252.74C88.578,250.641 89.422,247.833 90.391,245.885C91.182,248.167 92.01,250.505 92.875,252.896C92.495,256.047 92.005,260.255 91.766,263.422C91.219,264.755 90.563,266.594 90.406,268.026" style="fill:rgb(212,189,172);fill-rule:nonzero;"/>
        <path d="M91.74,274.474C91.448,273.646 91.063,272.547 90.781,271.719L89.589,267.135C89.927,268.125 90.292,269.151 90.667,270.188C91.099,271.792 91.557,273.958 92.12,275.521L91.74,274.474" style="fill:rgb(212,189,172);fill-rule:nonzero;"/>
        <path d="M403.87,148.781C403.443,147.688 403.036,146.604 402.635,145.536C404.359,146.302 406.651,147.427 408.156,148.563L411.229,152.057L409.141,151.161C407.557,150.453 405.057,150.042 403.87,148.781" style="fill:rgb(212,189,172);fill-rule:nonzero;"/>
        <path d="M386.344,147.797C385.37,145.281 384.427,142.792 383.516,140.339C385.958,139.885 389.24,139.323 391.729,139.255C394.38,140.844 397.922,142.958 400.557,144.583C401.021,145.844 401.51,147.125 402.01,148.417C400.177,148.964 397.75,149.771 396.036,150.615C393.12,149.792 389.24,148.677 386.344,147.797" style="fill:rgb(212,189,172);fill-rule:nonzero;"/>
        <path d="M361.609,150.724C360.156,146.953 358.745,143.224 357.375,139.552C360.438,137.99 364.552,135.932 367.745,134.651C371.542,136.25 376.615,138.38 380.417,139.984C381.391,142.609 382.406,145.276 383.443,147.969C380.875,149.672 377.469,151.99 375.036,153.885C371.005,152.964 365.63,151.708 361.609,150.724" style="fill:rgb(212,189,172);fill-rule:nonzero;"/>
        <path d="M331.047,157.255C329.193,152.453 327.385,147.698 325.646,143.016C329.198,140.438 333.964,137.026 337.656,134.646C342.396,136.182 348.714,138.234 353.453,139.771C354.875,143.589 356.344,147.474 357.859,151.391C354.708,154.104 350.526,157.75 347.5,160.604C342.563,159.615 335.974,158.292 331.047,157.255" style="fill:rgb(212,189,172);fill-rule:nonzero;"/>
        <path d="M296.026,167.104C293.87,161.526 291.776,156.005 289.75,150.568C293.656,147.089 298.88,142.474 302.911,139.146C308.37,140.536 315.641,142.385 321.089,143.786C322.875,148.583 324.724,153.458 326.625,158.38C323.031,161.948 318.255,166.729 314.766,170.401C309.146,169.417 301.646,168.104 296.026,167.104" style="fill:rgb(212,189,172);fill-rule:nonzero;"/>
        <path d="M218.182,195.505C215.807,189.344 213.49,183.24 211.255,177.229C215.427,172.417 221.005,166.01 225.271,161.276C231.453,162.016 239.693,163.01 245.859,163.844C248.068,169.776 250.354,175.802 252.703,181.885C248.609,186.63 243.151,192.964 239.104,197.75C232.828,197.068 224.464,196.156 218.182,195.505" style="fill:rgb(212,189,172);fill-rule:nonzero;"/>
        <path d="M149.292,228.458C147.234,223.141 145.24,217.875 143.313,212.693C146.219,207.87 150.109,201.438 153.083,196.651C158.161,196.688 164.932,196.771 170.01,196.948C172.135,202.651 174.328,208.443 176.589,214.286C173.307,218.958 168.938,225.193 165.688,229.885C160.771,229.422 154.214,228.823 149.292,228.458" style="fill:rgb(212,189,172);fill-rule:nonzero;"/>
        <path d="M123.62,243.969C121.906,239.531 120.24,235.135 118.63,230.813C120.786,226.349 123.672,220.406 125.88,215.969C130.005,215.646 135.505,215.255 139.641,215.12C141.531,220.203 143.495,225.37 145.505,230.583C142.885,234.818 139.391,240.464 136.781,244.703C132.833,244.438 127.573,244.094 123.62,243.969" style="fill:rgb(212,189,172);fill-rule:nonzero;"/>
        <path d="M105.104,257.958C103.823,254.641 102.573,251.359 101.375,248.13C102.688,244.245 104.458,239.073 105.844,235.214C108.839,234.51 112.849,233.63 115.891,233.172C117.453,237.365 119.073,241.625 120.734,245.927C118.849,249.516 116.328,254.302 114.438,257.891C111.641,257.849 107.901,257.807 105.104,257.958" style="fill:rgb(212,189,172);fill-rule:nonzero;"/>
        <path d="M94.693,269.771C93.922,267.771 93.172,265.797 92.448,263.854C92.823,260.75 93.354,256.615 93.854,253.526C95.542,252.458 97.849,251.094 99.688,250.323C100.833,253.396 102.016,256.516 103.229,259.667C102.156,262.417 100.724,266.094 99.667,268.859C98.161,269.047 96.141,269.307 94.693,269.771" style="fill:rgb(212,189,172);fill-rule:nonzero;"/>
        <path d="M93.214,278.417L92.74,277.188L92.344,276.115C91.844,274.307 91.141,271.896 90.807,270.047C91.01,268.74 91.339,266.958 91.938,265.781C92.594,267.542 93.271,269.333 93.969,271.135C93.776,272.896 93.516,275.245 93.448,277.016C93.302,277.417 93.099,278.005 93.214,278.417" style="fill:rgb(212,189,172);fill-rule:nonzero;"/>
        <path d="M410.281,152.583C410.151,152.266 410.021,151.938 409.891,151.62L411.229,152.057L410.281,152.583" style="fill:rgb(212,189,172);fill-rule:nonzero;"/>
        <path d="M400.13,157.401C399.375,155.563 398.635,153.724 397.911,151.896C399.531,151.089 401.724,150.016 403.474,149.516C405.068,150.104 407.198,150.885 408.813,151.427C409.021,151.953 409.234,152.484 409.453,153.016C408.479,154.073 407.219,155.521 406.359,156.672C404.5,156.979 402.01,157.318 400.13,157.401" style="fill:rgb(212,189,172);fill-rule:nonzero;"/>
        <path d="M356.443,176.349C354.651,171.974 352.885,167.599 351.161,163.25C354.135,160.396 358.115,156.604 361.219,153.891C365.255,154.76 370.646,155.911 374.698,156.698C376.026,160.052 377.385,163.427 378.771,166.797C376.286,169.885 372.995,174.021 370.604,177.182C366.354,176.984 360.682,176.688 356.443,176.349" style="fill:rgb(212,189,172);fill-rule:nonzero;"/>
        <path d="M325.469,189.401C323.292,184.094 321.156,178.792 319.063,173.516C322.516,169.844 327.125,164.958 330.677,161.385C335.625,162.328 342.224,163.568 347.188,164.448C348.964,168.938 350.781,173.453 352.63,177.969C349.583,181.828 345.536,186.99 342.568,190.906C337.438,190.49 330.594,189.917 325.469,189.401" style="fill:rgb(212,189,172);fill-rule:nonzero;"/>
        <path d="M176.859,250.229C174.5,244.474 172.182,238.719 169.911,232.995C173.229,228.323 177.651,222.099 180.995,217.448C186.698,218.052 194.302,218.87 200.005,219.516C202.427,225.63 204.906,231.781 207.422,237.932C203.823,242.531 199.026,248.656 195.417,253.245C189.849,252.339 182.427,251.13 176.859,250.229" style="fill:rgb(212,189,172);fill-rule:nonzero;"/>
        <path d="M121.922,271.854C120.286,267.87 118.682,263.885 117.115,259.922C119.099,256.375 121.745,251.646 123.714,248.094C127.656,248.365 132.906,248.745 136.839,249.135C138.766,253.995 140.729,258.88 142.729,263.766C140.271,267.083 136.99,271.495 134.458,274.76C130.703,273.87 125.693,272.688 121.922,271.854" style="fill:rgb(212,189,172);fill-rule:nonzero;"/>
        <path d="M104.646,278.349C103.526,275.609 102.422,272.87 101.339,270.146C102.521,267.443 104.094,263.833 105.276,261.125C108.063,261.156 111.786,261.234 114.573,261.427C116.083,265.234 117.625,269.068 119.198,272.896C117.438,275.313 115.083,278.531 113.234,280.885C110.661,280.104 107.234,279.068 104.646,278.349" style="fill:rgb(212,189,172);fill-rule:nonzero;"/>
        <path d="M95.583,281.417C95.047,280.099 94.516,278.786 93.995,277.479C94.245,275.766 94.609,273.484 94.943,271.792C96.406,271.557 98.38,271.318 99.859,271.302C100.865,273.844 101.901,276.401 102.948,278.964C101.99,280.333 100.708,282.167 99.646,283.458C98.427,282.849 96.505,282.417 95.583,281.417" style="fill:rgb(212,189,172);fill-rule:nonzero;"/>
        <path d="M94.688,282.094C94.031,280.49 94.031,280.49 93.708,279.682L93.443,279.01C93.49,278.786 93.557,278.484 93.604,278.26L93.708,278.203C94.146,279.313 94.599,280.427 95.052,281.542C94.964,281.755 94.953,282.135 94.75,282.25L94.688,282.094" style="fill:rgb(212,189,172);fill-rule:nonzero;"/>
        <path d="M408.599,160.328C408.125,159.229 407.651,158.12 407.182,157.01C407.979,155.823 409.031,154.234 409.932,153.125L411.229,152.057L411.063,155.776C410.464,157.208 409.578,159.12 408.599,160.328" style="fill:rgb(212,189,172);fill-rule:nonzero;"/>
        <path d="M397.198,174.307C396.104,171.786 395.026,169.245 393.953,166.693C395.578,164.422 397.76,161.401 399.495,159.208C401.432,158.964 404.031,158.63 405.917,158.12C406.469,159.432 407.026,160.74 407.583,162.031C406.641,164.661 405.38,168.172 404.438,170.807C402.323,171.964 399.453,173.448 397.198,174.307" style="fill:rgb(212,189,172);fill-rule:nonzero;"/>
        <path d="M377.865,190.411C376.229,186.641 374.609,182.833 373.005,179.01C375.344,175.818 378.469,171.563 380.896,168.438C384.104,168.427 388.391,168.396 391.589,168.188C392.734,170.922 393.896,173.641 395.068,176.339C393.313,179.854 390.99,184.542 389.271,188.073C385.87,188.865 381.318,189.87 377.865,190.411" style="fill:rgb(212,189,172);fill-rule:nonzero;"/>
        <path d="M206.625,274.339C204.057,268.422 201.516,262.453 199,256.458C202.635,251.875 207.484,245.766 211.109,241.177C217.255,242.005 225.453,243.104 231.609,243.885C234.224,250.13 236.87,256.344 239.542,262.5C235.714,267.109 230.609,273.25 226.74,277.823C220.698,276.807 212.651,275.438 206.625,274.339" style="fill:rgb(212,189,172);fill-rule:nonzero;"/>
        <path d="M172.234,284.49C169.922,279.167 167.635,273.792 165.375,268.396C168.516,264.396 172.708,259.057 175.807,255.021C181.349,255.979 188.734,257.25 194.276,258.203C196.76,264.141 199.281,270.047 201.818,275.901C198.385,279.839 193.792,285.078 190.276,288.943C184.859,287.62 177.641,285.854 172.234,284.49" style="fill:rgb(212,189,172);fill-rule:nonzero;"/>
        <path d="M142.771,290.734C140.844,286.286 138.932,281.802 137.047,277.297C139.615,274.057 143.026,269.729 145.531,266.438C150.26,267.422 156.563,268.745 161.281,269.755C163.5,275.052 165.75,280.323 168.016,285.547C165.057,288.651 161.104,292.771 158.042,295.771C153.453,294.266 147.344,292.26 142.771,290.734" style="fill:rgb(212,189,172);fill-rule:nonzero;"/>
        <path d="M119.406,292.891C117.969,289.568 116.536,286.219 115.125,282.854C117.026,280.536 119.536,277.427 121.349,275.042C125.068,275.984 130.031,277.25 133.745,278.234C135.573,282.599 137.427,286.948 139.297,291.255C136.917,293.385 133.729,296.219 131.219,298.188C127.667,296.609 122.125,295.661 119.406,292.891" style="fill:rgb(212,189,172);fill-rule:nonzero;"/>
        <path d="M103.302,290.786C102.432,288.786 101.573,286.771 100.724,284.75C101.849,283.495 103.318,281.792 104.333,280.453C106.87,281.302 110.24,282.443 112.76,283.323C114.104,286.521 115.458,289.703 116.828,292.859C115.13,293.911 112.844,295.307 111.01,296.099C108.677,294.526 105.057,292.974 103.302,290.786" style="fill:rgb(212,189,172);fill-rule:nonzero;"/>
        <path d="M95.896,284.953L95.724,284.552C95.495,284.021 95.193,283.307 94.969,282.776C95.182,282.682 95.443,282.479 95.573,282.286C96.724,283.031 98.26,284.005 99.438,284.708C100.203,286.536 100.984,288.365 101.771,290.177C100.797,290.089 99.448,289.891 98.604,289.396C97.76,288.083 96.547,286.375 95.896,284.953" style="fill:rgb(212,189,172);fill-rule:nonzero;"/>
        <path d="M411.714,155.88C411.573,155.578 411.432,155.266 411.292,154.953L411.229,152.057L411.714,155.88" style="fill:rgb(212,189,172);fill-rule:nonzero;"/>
        <path d="M408.26,176.135C407.469,174.417 406.672,172.661 405.88,170.885C406.698,168.193 407.792,164.604 408.594,161.906C409.484,160.484 410.625,158.516 411.115,156.911C411.344,157.422 411.573,157.932 411.802,158.427C411.818,161.521 411.802,165.646 411.682,168.734C410.797,171.016 409.542,174.052 408.26,176.135" style="fill:rgb(212,189,172);fill-rule:nonzero;"/>
        <g>
            <clipPath id="_clip2">
                <rect x="112" y="294.667" width="25.333" height="19.411"/>
            </clipPath>
            <g clip-path="url(#_clip2)">
                <path d="M116.766,306.266C115.583,303.703 114.396,301.089 113.219,298.438C115.12,297.604 117.635,296.427 119.401,295.339C122.932,297.052 127.641,299.333 131.188,301.005C132.839,304.708 134.495,308.365 136.146,311.953C133.724,312.74 130.464,313.755 127.948,314.193C124.568,311.849 119.359,309.453 116.766,306.266" style="fill:rgb(212,189,172);fill-rule:nonzero;"/>
            </g>
        </g>
        <path d="M101.396,294.813C100.828,293.583 100.266,292.328 99.698,291.052C100.724,291.479 102.172,291.984 103.286,291.995C105.563,293.75 108.62,296.063 110.958,297.734C112.057,300.208 113.167,302.651 114.271,305.047C112.448,304.615 110.01,303.958 108.333,303.13C106.198,300.677 103.073,297.594 101.396,294.813" style="fill:rgb(212,189,172);fill-rule:nonzero;"/>
        <path d="M96.896,287.208C96.682,286.724 96.391,286.083 96.182,285.599C96.88,286.839 97.74,288.536 98.542,289.714C99.021,290.792 99.505,291.859 99.984,292.901L97.839,289.26C97.557,288.646 97.172,287.823 96.896,287.208" style="fill:rgb(212,189,172);fill-rule:nonzero;"/>
        <g>
            <path d="M413.547,171.047C413.104,170.156 412.646,169.214 412.167,168.208L412.156,168.182C412.135,165.021 412.094,160.807 411.911,157.651L411.229,152.057L413.021,159.938C413.313,163.26 413.656,167.714 413.547,171.047" style="fill:rgb(212,189,172);fill-rule:nonzero;"/>
        </g>
        <path d="M413.047,158.568C412.938,158.37 412.823,158.151 412.698,157.911L411.229,152.057L413.047,158.568" style="fill:rgb(212,189,172);fill-rule:nonzero;"/>
        <g>
            <clipPath id="_clip3">
                <rect x="410.667" y="152" width="3.146" height="9.333"/>
            </clipPath>
            <g clip-path="url(#_clip3)">
                <path d="M413.984,160.057C413.917,159.974 413.844,159.875 413.76,159.76L411.229,152.057L413.984,160.057" style="fill:rgb(212,189,172);fill-rule:nonzero;"/>
            </g>
        </g>
        <g transform="matrix(1,0,0,1,60.3097,405.568)">
            <g>
                <g>
                    <path d="M32.813,1.125C29.146,1.125 25.573,0.667 22.104,-0.25C18.646,-1.167 15.521,-2.573 12.729,-4.479C9.938,-6.396 7.677,-8.88 5.958,-11.937C4.234,-14.99 3.26,-18.651 3.042,-22.917C3.042,-24.417 3.792,-25.167 5.292,-25.167L18.438,-25.167C19.813,-25.167 20.552,-24.458 20.667,-23.042C21.193,-19.552 22.719,-16.937 25.25,-15.187C27.776,-13.448 30.859,-12.583 34.5,-12.583C36.375,-12.583 38.146,-12.833 39.813,-13.333C41.479,-13.844 42.823,-14.708 43.854,-15.917C44.88,-17.135 45.396,-18.797 45.396,-20.896C45.396,-22.729 45,-24.24 44.208,-25.437C43.427,-26.646 42.344,-27.63 40.958,-28.396C39.568,-29.172 37.964,-29.812 36.146,-30.312C34.339,-30.812 32.417,-31.281 30.375,-31.729C28.333,-32.187 26.26,-32.698 24.167,-33.271C21.875,-33.896 19.625,-34.656 17.417,-35.562C15.208,-36.464 13.193,-37.672 11.375,-39.187C9.552,-40.698 8.104,-42.63 7.021,-44.979C5.938,-47.323 5.396,-50.234 5.396,-53.708C5.396,-57.875 6.156,-61.448 7.688,-64.437C9.229,-67.437 11.297,-69.906 13.896,-71.854C16.505,-73.812 19.422,-75.25 22.646,-76.167C25.865,-77.083 29.146,-77.542 32.479,-77.542C35.698,-77.542 38.875,-77.115 42,-76.271C45.125,-75.437 47.984,-74.135 50.583,-72.375C53.193,-70.609 55.339,-68.333 57.021,-65.542C58.714,-62.75 59.708,-59.406 60,-55.521C60.109,-53.937 59.401,-53.146 57.875,-53.146L45.729,-53.146C44.38,-53.146 43.594,-53.859 43.375,-55.292C42.776,-58.427 41.458,-60.635 39.417,-61.917C37.375,-63.193 34.948,-63.833 32.146,-63.833C29.188,-63.833 26.797,-63.187 24.979,-61.896C23.156,-60.604 22.25,-58.667 22.25,-56.083C22.25,-54.234 22.708,-52.755 23.625,-51.646C24.542,-50.547 25.776,-49.656 27.333,-48.979C28.885,-48.312 30.672,-47.76 32.688,-47.333C34.714,-46.901 36.818,-46.443 39,-45.958C41.208,-45.469 43.422,-44.885 45.646,-44.208C47.88,-43.542 49.99,-42.693 51.979,-41.667C53.964,-40.635 55.734,-39.318 57.292,-37.708C58.844,-36.094 60.063,-34.125 60.938,-31.792C61.813,-29.469 62.25,-26.667 62.25,-23.375C62.25,-19.625 61.667,-16.375 60.5,-13.625C59.344,-10.875 57.76,-8.547 55.75,-6.646C53.75,-4.755 51.479,-3.24 48.938,-2.104C46.396,-0.964 43.734,-0.146 40.958,0.354C38.193,0.865 35.479,1.125 32.813,1.125Z" style="fill:rgb(239,90,111);fill-rule:nonzero;"/>
                </g>
            </g>
        </g>
        <g transform="matrix(1,0,0,1,126.034,405.568)">
            <g>
                <g>
                    <path d="M13.042,-59.333C10.969,-59.333 8.99,-59.667 7.104,-60.333C5.214,-61.01 3.667,-62.026 2.458,-63.375C1.26,-64.719 0.667,-66.406 0.667,-68.437C0.667,-70.422 1.26,-72.089 2.458,-73.437C3.667,-74.781 5.214,-75.802 7.104,-76.5C8.99,-77.193 10.969,-77.542 13.042,-77.542C15.052,-77.542 17.005,-77.193 18.896,-76.5C20.797,-75.802 22.354,-74.781 23.563,-73.437C24.781,-72.089 25.396,-70.422 25.396,-68.437C25.396,-66.406 24.781,-64.719 23.563,-63.375C22.354,-62.026 20.797,-61.01 18.896,-60.333C17.005,-59.667 15.052,-59.333 13.042,-59.333ZM20,0L7.646,0C6.146,0 5.396,-0.75 5.396,-2.25L5.396,-50.687C10.865,-49.562 15.042,-47.172 17.917,-43.521C20.802,-39.865 22.25,-35.135 22.25,-29.333L22.25,-2.25C22.25,-0.75 21.5,0 20,0Z" style="fill:rgb(239,90,111);fill-rule:nonzero;"/>
                </g>
            </g>
        </g>
        <g transform="matrix(1,0,0,1,152.997,405.568)">
            <g>
                <g>
                    <path d="M27.646,-49.562L34.958,-49.562C36.443,-49.562 37.188,-48.812 37.188,-47.312L37.188,-38.771C37.188,-37.271 36.443,-36.521 34.958,-36.521L27.646,-36.521L27.646,-2.25C27.646,-0.75 26.896,0 25.396,0L13.042,0C11.542,0 10.792,-0.75 10.792,-2.25L10.792,-36.521L3.604,-36.521C2.104,-36.521 1.354,-37.271 1.354,-38.771L1.354,-47.312C1.354,-48.812 2.104,-49.562 3.604,-49.562L10.792,-49.562C10.792,-55.365 12.24,-60.094 15.146,-63.75C18.047,-67.401 22.214,-69.792 27.646,-70.917L27.646,-49.562Z" style="fill:rgb(239,90,111);fill-rule:nonzero;"/>
                </g>
            </g>
        </g>
        <g transform="matrix(1,0,0,1,191.533,405.568)">
            <g>
                <g>
                    <path d="M31.917,-51.354C35.693,-51.354 39.229,-50.792 42.521,-49.667C45.823,-48.542 48.74,-46.901 51.271,-44.75C53.797,-42.594 55.771,-39.937 57.188,-36.771C58.615,-33.604 59.333,-29.964 59.333,-25.854L59.333,-23.833C59.333,-22.333 58.583,-21.583 57.083,-21.583L20.896,-21.583C21.115,-18.167 22.167,-15.417 24.042,-13.333C25.917,-11.26 28.427,-10.229 31.583,-10.229C34.052,-10.229 36.094,-10.729 37.708,-11.729C39.318,-12.74 40.458,-14 41.125,-15.5C41.427,-16.135 41.771,-16.615 42.146,-16.937C42.521,-17.255 43.005,-17.417 43.604,-17.417L56.083,-17.417C56.859,-17.417 57.443,-17.177 57.833,-16.708C58.234,-16.25 58.281,-15.625 57.979,-14.833C56.672,-11.083 54.755,-7.979 52.229,-5.521C49.698,-3.073 46.714,-1.24 43.271,-0.021C39.823,1.188 36.042,1.792 31.917,1.792C27.635,1.792 23.729,1.188 20.188,-0.021C16.656,-1.24 13.615,-3.005 11.063,-5.312C8.521,-7.615 6.547,-10.406 5.146,-13.687C3.74,-16.964 3.042,-20.646 3.042,-24.729C3.042,-28.771 3.755,-32.427 5.188,-35.708C6.63,-38.984 8.646,-41.781 11.229,-44.104C13.813,-46.422 16.865,-48.208 20.396,-49.458C23.922,-50.719 27.76,-51.354 31.917,-51.354ZM21.125,-30.687L41.458,-30.687C41.318,-33.38 40.344,-35.589 38.542,-37.312C36.75,-39.031 34.354,-39.896 31.354,-39.896C28.24,-39.896 25.88,-39.031 24.271,-37.312C22.656,-35.589 21.609,-33.38 21.125,-30.687Z" style="fill:rgb(239,90,111);fill-rule:nonzero;"/>
                </g>
            </g>
        </g>
        <g transform="matrix(1,0,0,1,254.13,405.568)">
            <g>
                <g>
                    <path d="M2.688,-76.417L56.417,-76.417C57.917,-76.417 58.667,-75.667 58.667,-74.167L58.667,-63.375C58.667,-61.875 57.917,-61.125 56.417,-61.125L37.979,-61.125L37.979,-2.25C37.979,-0.75 37.229,0 35.729,0L23.375,0C21.875,0 21.125,-0.75 21.125,-2.25L21.125,-39.896C21.125,-43.339 21.589,-46.484 22.521,-49.333C23.464,-52.177 24.776,-54.625 26.458,-56.667C28.151,-58.708 30.115,-60.193 32.354,-61.125L2.688,-61.125C1.198,-61.125 0.458,-61.875 0.458,-63.375L0.458,-74.167C0.458,-75.667 1.198,-76.417 2.688,-76.417Z" style="fill:rgb(83,100,147);fill-rule:nonzero;"/>
                </g>
            </g>
        </g>
        <g transform="matrix(1,0,0,1,313.338,405.568)">
            <g>
                <g>
                    <path d="M31.917,-51.354C35.693,-51.354 39.229,-50.792 42.521,-49.667C45.823,-48.542 48.74,-46.901 51.271,-44.75C53.797,-42.594 55.771,-39.937 57.188,-36.771C58.615,-33.604 59.333,-29.964 59.333,-25.854L59.333,-23.833C59.333,-22.333 58.583,-21.583 57.083,-21.583L20.896,-21.583C21.115,-18.167 22.167,-15.417 24.042,-13.333C25.917,-11.26 28.427,-10.229 31.583,-10.229C34.052,-10.229 36.094,-10.729 37.708,-11.729C39.318,-12.74 40.458,-14 41.125,-15.5C41.427,-16.135 41.771,-16.615 42.146,-16.937C42.521,-17.255 43.005,-17.417 43.604,-17.417L56.083,-17.417C56.859,-17.417 57.443,-17.177 57.833,-16.708C58.234,-16.25 58.281,-15.625 57.979,-14.833C56.672,-11.083 54.755,-7.979 52.229,-5.521C49.698,-3.073 46.714,-1.24 43.271,-0.021C39.823,1.188 36.042,1.792 31.917,1.792C27.635,1.792 23.729,1.188 20.188,-0.021C16.656,-1.24 13.615,-3.005 11.063,-5.312C8.521,-7.615 6.547,-10.406 5.146,-13.687C3.74,-16.964 3.042,-20.646 3.042,-24.729C3.042,-28.771 3.755,-32.427 5.188,-35.708C6.63,-38.984 8.646,-41.781 11.229,-44.104C13.813,-46.422 16.865,-48.208 20.396,-49.458C23.922,-50.719 27.76,-51.354 31.917,-51.354ZM21.125,-30.687L41.458,-30.687C41.318,-33.38 40.344,-35.589 38.542,-37.312C36.75,-39.031 34.354,-39.896 31.354,-39.896C28.24,-39.896 25.88,-39.031 24.271,-37.312C22.656,-35.589 21.609,-33.38 21.125,-30.687Z" style="fill:rgb(83,100,147);fill-rule:nonzero;"/>
                </g>
            </g>
        </g>
        <g transform="matrix(1,0,0,1,375.916,405.568)">
            <g>
                <g>
                    <path d="M29.563,1.792C25.438,1.792 21.74,1.109 18.479,-0.25C15.229,-1.625 12.458,-3.526 10.167,-5.958C7.885,-8.385 6.146,-11.214 4.938,-14.437C3.74,-17.656 3.146,-21.125 3.146,-24.833C3.146,-28.5 3.74,-31.937 4.938,-35.146C6.146,-38.354 7.885,-41.172 10.167,-43.604C12.458,-46.031 15.229,-47.927 18.479,-49.292C21.74,-50.667 25.438,-51.354 29.563,-51.354C34.573,-51.354 38.969,-50.505 42.75,-48.812C46.542,-47.13 49.604,-44.833 51.938,-41.917C54.281,-39 55.776,-35.698 56.417,-32.021C56.526,-31.312 56.38,-30.74 55.979,-30.312C55.589,-29.88 55.021,-29.667 54.271,-29.667L41.917,-29.667C40.677,-29.667 39.896,-30.339 39.563,-31.687C39.073,-33.823 38.125,-35.464 36.708,-36.604C35.302,-37.74 33.333,-38.312 30.792,-38.312C28.875,-38.312 27.234,-37.917 25.875,-37.125C24.51,-36.344 23.396,-35.312 22.521,-34.021C21.656,-32.729 21.021,-31.281 20.604,-29.687C20.198,-28.104 20,-26.484 20,-24.833C20,-22.401 20.359,-20.151 21.083,-18.083C21.818,-16.026 22.984,-14.365 24.583,-13.104C26.177,-11.854 28.25,-11.229 30.792,-11.229C33.333,-11.229 35.302,-11.797 36.708,-12.937C38.125,-14.089 39.073,-15.734 39.563,-17.875C39.896,-19.219 40.677,-19.896 41.917,-19.896L54.271,-19.896C55.021,-19.896 55.589,-19.734 55.979,-19.417C56.38,-19.094 56.526,-18.651 56.417,-18.083C55.885,-14.344 54.469,-10.979 52.167,-7.979C49.859,-4.979 46.781,-2.594 42.938,-0.833C39.104,0.917 34.646,1.792 29.563,1.792Z" style="fill:rgb(83,100,147);fill-rule:nonzero;"/>
                </g>
            </g>
        </g>
        <g transform="matrix(1,0,0,1,155.19,452.519)">
            <g>
                <g>
                    <path d="M7.938,0.229C6.589,0.229 5.406,-0.005 4.396,-0.479C3.396,-0.964 2.609,-1.646 2.042,-2.521C1.484,-3.396 1.208,-4.427 1.208,-5.625L3.521,-5.625C3.521,-4.484 3.938,-3.594 4.771,-2.958C5.604,-2.318 6.646,-2 7.896,-2C8.656,-2 9.354,-2.125 9.979,-2.375C10.615,-2.635 11.115,-3.005 11.479,-3.479C11.839,-3.964 12.021,-4.526 12.021,-5.167C12.021,-5.875 11.802,-6.422 11.375,-6.812C10.958,-7.214 10.401,-7.526 9.708,-7.75C9.01,-7.969 8.271,-8.172 7.479,-8.354C6.771,-8.521 6.068,-8.708 5.375,-8.917C4.677,-9.125 4.042,-9.406 3.458,-9.771C2.875,-10.13 2.406,-10.594 2.063,-11.167C1.714,-11.75 1.542,-12.5 1.542,-13.417C1.542,-14.984 2.104,-16.219 3.229,-17.125C4.365,-18.042 5.875,-18.5 7.75,-18.5C9.635,-18.5 11.125,-18.005 12.208,-17.021C13.302,-16.047 13.854,-14.74 13.854,-13.104L11.583,-13.104C11.583,-14.104 11.214,-14.88 10.479,-15.437C9.755,-16.005 8.839,-16.292 7.729,-16.292C6.604,-16.292 5.672,-16.042 4.938,-15.542C4.198,-15.052 3.833,-14.38 3.833,-13.521C3.833,-12.839 4.042,-12.312 4.458,-11.937C4.875,-11.562 5.417,-11.26 6.083,-11.042C6.76,-10.833 7.49,-10.635 8.271,-10.458C8.979,-10.292 9.693,-10.089 10.417,-9.854C11.135,-9.63 11.797,-9.333 12.396,-8.958C13.005,-8.594 13.484,-8.109 13.833,-7.5C14.193,-6.901 14.375,-6.13 14.375,-5.187C14.375,-4.047 14.089,-3.068 13.521,-2.25C12.948,-1.443 12.177,-0.823 11.208,-0.396C10.234,0.021 9.146,0.229 7.938,0.229Z" style="fill-rule:nonzero;"/>
                </g>
            </g>
        </g>
        <g transform="matrix(1,0,0,1,175.972,452.519)">
            <g>
                <g>
                    <path d="M10.792,0.313C9.417,0.313 8.146,0.073 6.979,-0.396C5.823,-0.88 4.818,-1.547 3.958,-2.396C3.094,-3.255 2.427,-4.255 1.958,-5.396C1.484,-6.531 1.25,-7.776 1.25,-9.125C1.25,-10.469 1.484,-11.714 1.958,-12.854C2.427,-14.005 3.094,-15.005 3.958,-15.854C4.818,-16.714 5.823,-17.38 6.979,-17.854C8.146,-18.323 9.417,-18.562 10.792,-18.562C12.177,-18.562 13.458,-18.323 14.625,-17.854C15.792,-17.38 16.797,-16.714 17.646,-15.854C18.505,-15.005 19.172,-14.01 19.646,-12.875C20.13,-11.734 20.375,-10.484 20.375,-9.125C20.375,-7.776 20.13,-6.526 19.646,-5.375C19.172,-4.219 18.505,-3.219 17.646,-2.375C16.797,-1.542 15.792,-0.88 14.625,-0.396C13.458,0.073 12.177,0.313 10.792,0.313ZM10.792,-1.937C12.177,-1.937 13.417,-2.25 14.5,-2.875C15.594,-3.5 16.458,-4.354 17.083,-5.437C17.708,-6.521 18.021,-7.75 18.021,-9.125C18.021,-10.5 17.708,-11.729 17.083,-12.812C16.458,-13.906 15.594,-14.771 14.5,-15.396C13.417,-16.021 12.177,-16.333 10.792,-16.333C9.417,-16.333 8.188,-16.01 7.104,-15.375C6.021,-14.734 5.167,-13.875 4.542,-12.792C3.917,-11.708 3.604,-10.484 3.604,-9.125C3.604,-7.75 3.917,-6.521 4.542,-5.437C5.167,-4.365 6.021,-3.51 7.104,-2.875C8.188,-2.25 9.417,-1.937 10.792,-1.937Z" style="fill-rule:nonzero;"/>
                </g>
            </g>
        </g>
        <g transform="matrix(1,0,0,1,202.801,452.519)">
            <g>
                <g>
                    <path d="M4.771,-2.146L12.813,-2.146L12.813,0L2.5,0L2.5,-18.25L4.771,-18.25L4.771,-2.146Z" style="fill-rule:nonzero;"/>
                </g>
            </g>
        </g>
        <g transform="matrix(1,0,0,1,221.367,452.519)">
            <g>
                <g>
                    <path d="M9.458,0.313C8.094,0.313 6.865,0.005 5.771,-0.604C4.688,-1.214 3.833,-2.052 3.208,-3.125C2.583,-4.193 2.271,-5.422 2.271,-6.812L2.271,-18.25L4.583,-18.25L4.583,-6.958C4.583,-5.969 4.792,-5.094 5.208,-4.333C5.625,-3.583 6.198,-2.99 6.938,-2.562C7.672,-2.146 8.51,-1.937 9.458,-1.937C10.401,-1.937 11.234,-2.146 11.958,-2.562C12.693,-2.99 13.26,-3.583 13.667,-4.333C14.083,-5.094 14.292,-5.969 14.292,-6.958L14.292,-18.25L16.625,-18.25L16.625,-6.812C16.625,-5.422 16.302,-4.193 15.667,-3.125C15.042,-2.052 14.188,-1.214 13.104,-0.604C12.031,0.005 10.818,0.313 9.458,0.313Z" style="fill-rule:nonzero;"/>
                </g>
            </g>
        </g>
        <g transform="matrix(1,0,0,1,245.459,452.519)">
            <g>
                <g>
                    <path d="M13.958,-18.25L13.958,-16.125L8.396,-16.125L8.396,0L6.104,0L6.104,-16.125L0.542,-16.125L0.542,-18.25L13.958,-18.25Z" style="fill-rule:nonzero;"/>
                </g>
            </g>
        </g>
        <g transform="matrix(1,0,0,1,265.172,452.519)">
            <g>
                <g>
                    <rect x="2.5" y="-18.25" width="2.271" height="18.25" style="fill-rule:nonzero;"/>
                </g>
            </g>
        </g>
        <g transform="matrix(1,0,0,1,277.664,452.519)">
            <g>
                <g>
                    <path d="M10.792,0.313C9.417,0.313 8.146,0.073 6.979,-0.396C5.823,-0.88 4.818,-1.547 3.958,-2.396C3.094,-3.255 2.427,-4.255 1.958,-5.396C1.484,-6.531 1.25,-7.776 1.25,-9.125C1.25,-10.469 1.484,-11.714 1.958,-12.854C2.427,-14.005 3.094,-15.005 3.958,-15.854C4.818,-16.714 5.823,-17.38 6.979,-17.854C8.146,-18.323 9.417,-18.562 10.792,-18.562C12.177,-18.562 13.458,-18.323 14.625,-17.854C15.792,-17.38 16.797,-16.714 17.646,-15.854C18.505,-15.005 19.172,-14.01 19.646,-12.875C20.13,-11.734 20.375,-10.484 20.375,-9.125C20.375,-7.776 20.13,-6.526 19.646,-5.375C19.172,-4.219 18.505,-3.219 17.646,-2.375C16.797,-1.542 15.792,-0.88 14.625,-0.396C13.458,0.073 12.177,0.313 10.792,0.313ZM10.792,-1.937C12.177,-1.937 13.417,-2.25 14.5,-2.875C15.594,-3.5 16.458,-4.354 17.083,-5.437C17.708,-6.521 18.021,-7.75 18.021,-9.125C18.021,-10.5 17.708,-11.729 17.083,-12.812C16.458,-13.906 15.594,-14.771 14.5,-15.396C13.417,-16.021 12.177,-16.333 10.792,-16.333C9.417,-16.333 8.188,-16.01 7.104,-15.375C6.021,-14.734 5.167,-13.875 4.542,-12.792C3.917,-11.708 3.604,-10.484 3.604,-9.125C3.604,-7.75 3.917,-6.521 4.542,-5.437C5.167,-4.365 6.021,-3.51 7.104,-2.875C8.188,-2.25 9.417,-1.937 10.792,-1.937Z" style="fill-rule:nonzero;"/>
                </g>
            </g>
        </g>
        <g transform="matrix(1,0,0,1,304.494,452.519)">
            <g>
                <g>
                    <path d="M14.813,-18.25L17.063,-18.25L17.063,0L15.125,0L4.729,-14.25L4.729,0L2.5,0L2.5,-18.25L4.563,-18.25L14.813,-4.167L14.813,-18.25Z" style="fill-rule:nonzero;"/>
                </g>
            </g>
        </g>
        <g transform="matrix(1,0,0,1,329.238,452.519)">
            <g>
                <g>
                    <path d="M7.938,0.229C6.589,0.229 5.406,-0.005 4.396,-0.479C3.396,-0.964 2.609,-1.646 2.042,-2.521C1.484,-3.396 1.208,-4.427 1.208,-5.625L3.521,-5.625C3.521,-4.484 3.938,-3.594 4.771,-2.958C5.604,-2.318 6.646,-2 7.896,-2C8.656,-2 9.354,-2.125 9.979,-2.375C10.615,-2.635 11.115,-3.005 11.479,-3.479C11.839,-3.964 12.021,-4.526 12.021,-5.167C12.021,-5.875 11.802,-6.422 11.375,-6.812C10.958,-7.214 10.401,-7.526 9.708,-7.75C9.01,-7.969 8.271,-8.172 7.479,-8.354C6.771,-8.521 6.068,-8.708 5.375,-8.917C4.677,-9.125 4.042,-9.406 3.458,-9.771C2.875,-10.13 2.406,-10.594 2.063,-11.167C1.714,-11.75 1.542,-12.5 1.542,-13.417C1.542,-14.984 2.104,-16.219 3.229,-17.125C4.365,-18.042 5.875,-18.5 7.75,-18.5C9.635,-18.5 11.125,-18.005 12.208,-17.021C13.302,-16.047 13.854,-14.74 13.854,-13.104L11.583,-13.104C11.583,-14.104 11.214,-14.88 10.479,-15.437C9.755,-16.005 8.839,-16.292 7.729,-16.292C6.604,-16.292 5.672,-16.042 4.938,-15.542C4.198,-15.052 3.833,-14.38 3.833,-13.521C3.833,-12.839 4.042,-12.312 4.458,-11.937C4.875,-11.562 5.417,-11.26 6.083,-11.042C6.76,-10.833 7.49,-10.635 8.271,-10.458C8.979,-10.292 9.693,-10.089 10.417,-9.854C11.135,-9.63 11.797,-9.333 12.396,-8.958C13.005,-8.594 13.484,-8.109 13.833,-7.5C14.193,-6.901 14.375,-6.13 14.375,-5.187C14.375,-4.047 14.089,-3.068 13.521,-2.25C12.948,-1.443 12.177,-0.823 11.208,-0.396C10.234,0.021 9.146,0.229 7.938,0.229Z" style="fill-rule:nonzero;"/>
                </g>
            </g>
        </g>
    </g>
</svg>
